<svg width="23" height="23" viewBox="0 0 23 23" fill="none" xmlns="http://www.w3.org/2000/svg">
<path d="M20.3017 8.64982H1.72731C0.847303 8.64982 0.470158 7.69124 1.16159 7.23553L10.4488 1.15406C10.6203 1.05319 10.8156 1 11.0145 1C11.2134 1 11.4088 1.05319 11.5802 1.15406L20.8674 7.23553C21.5589 7.69124 21.1817 8.64982 20.3017 8.64982Z" stroke="#9CA9BA" stroke-width="1.6" stroke-linecap="round" stroke-linejoin="round"/>
<path d="M20.443 17.293H1.58571C1.15177 17.293 0.799988 17.6447 0.799988 18.0787V20.4358C0.799988 20.8698 1.15177 21.2216 1.58571 21.2216H20.443C20.8769 21.2216 21.2287 20.8698 21.2287 20.4358V18.0787C21.2287 17.6447 20.8769 17.293 20.443 17.293Z" stroke="#9CA9BA" stroke-width="1.6" stroke-linecap="round" stroke-linejoin="round"/>
<path d="M3.15741 8.6499V17.2928" stroke="#9CA9BA" stroke-width="1.6" stroke-linecap="round" stroke-linejoin="round"/>
<path d="M7.08612 8.6499V17.2928" stroke="#9CA9BA" stroke-width="1.6" stroke-linecap="round" stroke-linejoin="round"/>
<path d="M11.014 8.6499V17.2928" stroke="#9CA9BA" stroke-width="1.6" stroke-linecap="round" stroke-linejoin="round"/>
<path d="M14.9435 8.6499V17.2928" stroke="#9CA9BA" stroke-width="1.6" stroke-linecap="round" stroke-linejoin="round"/>
<path d="M18.8713 8.6499V17.2928" stroke="#9CA9BA" stroke-width="1.6" stroke-linecap="round" stroke-linejoin="round"/>
</svg>
