<svg width="18" height="18" viewBox="0 0 18 18" fill="none" xmlns="http://www.w3.org/2000/svg">
<g clip-path="url(#clip0_67_1372)">
<path d="M8.99197 0.246095C4.02388 0.244086 0 4.26596 0 9.23002C0 13.1555 2.51719 16.4923 6.02277 17.7177C6.49487 17.8363 6.42255 17.5008 6.42255 17.2718V15.7148C3.69643 16.0343 3.58594 14.2302 3.40313 13.9289C3.03348 13.2981 2.1596 13.1374 2.42076 12.8361C3.04152 12.5166 3.67433 12.9164 4.40759 13.9992C4.93795 14.7847 5.97254 14.6521 6.49688 14.5215C6.61138 14.0494 6.85647 13.6276 7.19397 13.3001C4.36942 12.7939 3.19219 11.0702 3.19219 9.02109C3.19219 8.02668 3.51964 7.11261 4.1625 6.37534C3.75268 5.15993 4.20067 4.11931 4.26094 3.96462C5.42813 3.86016 6.64152 4.80034 6.73594 4.87467C7.39888 4.69587 8.15625 4.60145 9.00402 4.60145C9.8558 4.60145 10.6152 4.69989 11.2842 4.88069C11.5112 4.70793 12.6362 3.90034 13.721 3.99877C13.7792 4.15346 14.2172 5.16998 13.8315 6.36931C14.4824 7.1086 14.8138 8.03069 14.8138 9.02712C14.8138 11.0802 13.6286 12.8059 10.796 13.3041C11.0386 13.5427 11.2312 13.8273 11.3627 14.1412C11.4941 14.455 11.5616 14.792 11.5614 15.1323V17.3923C11.5775 17.5731 11.5614 17.7519 11.8627 17.7519C15.4205 16.5526 17.9819 13.1916 17.9819 9.23203C17.9819 4.26596 13.956 0.246095 8.99197 0.246095V0.246095Z" fill="white"/>
</g>
<defs>
<clipPath id="clip0_67_1372">
<rect width="18" height="18" fill="white"/>
</clipPath>
</defs>
</svg>
