<svg width="24" height="22" viewBox="0 0 24 22" fill="none" xmlns="http://www.w3.org/2000/svg">
<path d="M12.0463 5.82143C13.3777 5.82143 14.457 4.74211 14.457 3.41071C14.457 2.07931 13.3777 1 12.0463 1C10.7149 1 9.63556 2.07931 9.63556 3.41071C9.63556 4.74211 10.7149 5.82143 12.0463 5.82143Z" stroke="#9CA9BA" stroke-width="1.6" stroke-linecap="round" stroke-linejoin="round"/>
<path d="M4.01112 20.2858C5.34252 20.2858 6.42183 19.2065 6.42183 17.8751C6.42183 16.5437 5.34252 15.4644 4.01112 15.4644C2.67972 15.4644 1.6004 16.5437 1.6004 17.8751C1.6004 19.2065 2.67972 20.2858 4.01112 20.2858Z" stroke="#9CA9BA" stroke-width="1.6" stroke-linecap="round" stroke-linejoin="round"/>
<path d="M12.0463 20.2858C13.3777 20.2858 14.457 19.2065 14.457 17.8751C14.457 16.5437 13.3777 15.4644 12.0463 15.4644C10.7149 15.4644 9.63556 16.5437 9.63556 17.8751C9.63556 19.2065 10.7149 20.2858 12.0463 20.2858Z" stroke="#9CA9BA" stroke-width="1.6" stroke-linecap="round" stroke-linejoin="round"/>
<path d="M20.0824 20.2858C21.4138 20.2858 22.4931 19.2065 22.4931 17.8751C22.4931 16.5437 21.4138 15.4644 20.0824 15.4644C18.751 15.4644 17.6717 16.5437 17.6717 17.8751C17.6717 19.2065 18.751 20.2858 20.0824 20.2858Z" stroke="#9CA9BA" stroke-width="1.6" stroke-linecap="round" stroke-linejoin="round"/>
<path d="M4.01056 15.4645V12.2502C4.01056 11.824 4.17988 11.4152 4.48128 11.1138C4.78268 10.8124 5.19146 10.6431 5.6177 10.6431H18.4748C18.9011 10.6431 19.3099 10.8124 19.6113 11.1138C19.9127 11.4152 20.082 11.824 20.082 12.2502V15.4645" stroke="#9CA9BA" stroke-width="1.6" stroke-linecap="round" stroke-linejoin="round"/>
<path d="M12.0467 5.82129V15.4641" stroke="#9CA9BA" stroke-width="1.6" stroke-linecap="round" stroke-linejoin="round"/>
</svg>
