<svg width="20" height="20" viewBox="0 0 20 20" fill="none" xmlns="http://www.w3.org/2000/svg">
<path d="M14.4997 14.1538V17.6154C14.4997 17.9826 14.3417 18.3348 14.0604 18.5945C13.7791 18.8541 13.3976 19 12.9998 19H2.49997C2.10215 19 1.72063 18.8541 1.43933 18.5945C1.15803 18.3348 1 17.9826 1 17.6154V2.38462C1 2.01739 1.15803 1.66521 1.43933 1.40554C1.72063 1.14588 2.10215 1 2.49997 1H12.9998C13.3976 1 13.7791 1.14588 14.0604 1.40554C14.3417 1.66521 14.4997 2.01739 14.4997 2.38462V5.84615" stroke="#9CA9BA" stroke-width="1.6" stroke-linecap="round" stroke-linejoin="round"/>
<path d="M19 10H7.00024" stroke="#9CA9BA" stroke-width="1.6" stroke-linecap="round" stroke-linejoin="round"/>
<path d="M10.0002 7.23096L7.00024 10.0002L10.0002 12.7694" stroke="#9CA9BA" stroke-width="1.6" stroke-linecap="round" stroke-linejoin="round"/>
</svg>
