<svg width="24" height="24" viewBox="0 0 24 24" fill="none" xmlns="http://www.w3.org/2000/svg">
<path d="M4.05717 6.71432C5.35899 6.71432 6.41433 5.65898 6.41433 4.35716C6.41433 3.05534 5.35899 2 4.05717 2C2.75535 2 1.70001 3.05534 1.70001 4.35716C1.70001 5.65898 2.75535 6.71432 4.05717 6.71432Z" stroke="#9CA9BA" stroke-width="1.6" stroke-linecap="round" stroke-linejoin="round"/>
<path d="M6.41388 4.35742H22.1283" stroke="#9CA9BA" stroke-width="1.6" stroke-linecap="round" stroke-linejoin="round"/>
<path d="M11.9146 14.5717C13.2164 14.5717 14.2718 13.5164 14.2718 12.2146C14.2718 10.9128 13.2164 9.85742 11.9146 9.85742C10.6128 9.85742 9.55743 10.9128 9.55743 12.2146C9.55743 13.5164 10.6128 14.5717 11.9146 14.5717Z" stroke="#9CA9BA" stroke-width="1.6" stroke-linecap="round" stroke-linejoin="round"/>
<path d="M1.70001 12.2144H9.55721" stroke="#9CA9BA" stroke-width="1.6" stroke-linecap="round" stroke-linejoin="round"/>
<path d="M14.2711 12.2144H22.1283" stroke="#9CA9BA" stroke-width="1.6" stroke-linecap="round" stroke-linejoin="round"/>
<path d="M19.771 22.4287C21.0729 22.4287 22.1282 21.3733 22.1282 20.0715C22.1282 18.7697 21.0729 17.7144 19.771 17.7144C18.4692 17.7144 17.4139 18.7697 17.4139 20.0715C17.4139 21.3733 18.4692 22.4287 19.771 22.4287Z" stroke="#9CA9BA" stroke-width="1.6" stroke-linecap="round" stroke-linejoin="round"/>
<path d="M17.4144 20.0718H1.70001" stroke="#9CA9BA" stroke-width="1.6" stroke-linecap="round" stroke-linejoin="round"/>
</svg>
