<svg width="18" height="18" viewBox="0 0 18 18" fill="none" xmlns="http://www.w3.org/2000/svg">
<path d="M9.0346 5.11607C10.0331 5.11607 10.8426 4.30659 10.8426 3.30803C10.8426 2.30948 10.0331 1.5 9.0346 1.5C8.03605 1.5 7.22656 2.30948 7.22656 3.30803C7.22656 4.30659 8.03605 5.11607 9.0346 5.11607Z" stroke="#9CA9BA" stroke-width="1.2" stroke-linecap="round" stroke-linejoin="round"/>
<path d="M3.00823 15.9642C4.00678 15.9642 4.81627 15.1547 4.81627 14.1562C4.81627 13.1576 4.00678 12.3481 3.00823 12.3481C2.00968 12.3481 1.2002 13.1576 1.2002 14.1562C1.2002 15.1547 2.00968 15.9642 3.00823 15.9642Z" stroke="#9CA9BA" stroke-width="1.2" stroke-linecap="round" stroke-linejoin="round"/>
<path d="M9.0346 15.9642C10.0331 15.9642 10.8426 15.1547 10.8426 14.1562C10.8426 13.1576 10.0331 12.3481 9.0346 12.3481C8.03605 12.3481 7.22656 13.1576 7.22656 14.1562C7.22656 15.1547 8.03605 15.9642 9.0346 15.9642Z" stroke="#9CA9BA" stroke-width="1.2" stroke-linecap="round" stroke-linejoin="round"/>
<path d="M15.0624 15.9642C16.061 15.9642 16.8705 15.1547 16.8705 14.1562C16.8705 13.1576 16.061 12.3481 15.0624 12.3481C14.0639 12.3481 13.2544 13.1576 13.2544 14.1562C13.2544 15.1547 14.0639 15.9642 15.0624 15.9642Z" stroke="#9CA9BA" stroke-width="1.2" stroke-linecap="round" stroke-linejoin="round"/>
<path d="M3.00781 12.348V9.93729C3.00781 9.61761 3.13481 9.31102 3.36085 9.08497C3.5869 8.85893 3.89349 8.73193 4.21317 8.73193H13.856C14.1757 8.73193 14.4823 8.85893 14.7083 9.08497C14.9344 9.31102 15.0614 9.61761 15.0614 9.93729V12.348" stroke="#9CA9BA" stroke-width="1.2" stroke-linecap="round" stroke-linejoin="round"/>
<path d="M9.03564 5.11621V12.3484" stroke="#9CA9BA" stroke-width="1.2" stroke-linecap="round" stroke-linejoin="round"/>
</svg>
