<svg width="18" height="18" viewBox="0 0 18 18" fill="none" xmlns="http://www.w3.org/2000/svg">
<g clip-path="url(#clip0_301_4902)">
<path d="M12.2421 9.79909L16.0475 7.34361C16.1957 7.25371 16.322 7.13183 16.4171 6.98689C16.5121 6.84194 16.5736 6.67757 16.5971 6.50581C16.6205 6.33405 16.6052 6.15922 16.5524 5.99411C16.4996 5.82899 16.4106 5.67776 16.2919 5.55146L12.5563 1.81587C12.43 1.69713 12.2787 1.6081 12.1136 1.5553C11.9485 1.5025 11.7737 1.48725 11.6019 1.51067C11.4302 1.53409 11.2658 1.59559 11.1208 1.69068C10.9759 1.78576 10.854 1.91203 10.7641 2.06025L8.25046 5.81911L3.02529 6.98285C2.9058 7.01184 2.79609 7.07188 2.70724 7.15688C2.6184 7.24188 2.55358 7.34883 2.51933 7.46692C2.48508 7.58501 2.48263 7.71005 2.51221 7.8294C2.5418 7.94874 2.60237 8.05816 2.68781 8.14658L9.84477 15.3152C9.93537 15.3972 10.0456 15.4544 10.1648 15.4813C10.284 15.5082 10.4081 15.5039 10.5251 15.4688C10.6421 15.4337 10.7481 15.369 10.8328 15.2809C10.9175 15.1928 10.978 15.0844 11.0085 14.9661L12.2421 9.79909Z" stroke="#9CA9BA" stroke-width="1.2" stroke-linecap="round" stroke-linejoin="round"/>
<path d="M6.25967 11.8125L1.5 16.6071" stroke="#9CA9BA" stroke-width="1.2" stroke-linecap="round" stroke-linejoin="round"/>
</g>
<defs>
<clipPath id="clip0_301_4902">
<rect width="18" height="18" fill="white"/>
</clipPath>
</defs>
</svg>
