<svg width="17" height="18" viewBox="0 0 17 18" fill="none" xmlns="http://www.w3.org/2000/svg">
<path d="M8.7323 15.9646C12.7266 15.9646 15.9646 12.7266 15.9646 8.7323C15.9646 4.73801 12.7266 1.5 8.7323 1.5C4.73801 1.5 1.5 4.73801 1.5 8.7323C1.5 12.7266 4.73801 15.9646 8.7323 15.9646Z" stroke="#9CA9BA" stroke-width="1.2" stroke-linecap="round" stroke-linejoin="round"/>
<path d="M12.4329 14.9521C13.5698 15.4589 14.5881 16.198 15.4222 17.1218" stroke="#9CA9BA" stroke-width="1.2" stroke-linecap="round" stroke-linejoin="round"/>
<path d="M2.04272 17.1218C2.87687 16.198 3.89515 15.4589 5.03208 14.9521" stroke="#9CA9BA" stroke-width="1.2" stroke-linecap="round" stroke-linejoin="round"/>
<path d="M8.73212 12.3485C10.7293 12.3485 12.3483 10.7295 12.3483 8.73236C12.3483 6.73522 10.7293 5.11621 8.73212 5.11621C6.73497 5.11621 5.11597 6.73522 5.11597 8.73236C5.11597 10.7295 6.73497 12.3485 8.73212 12.3485Z" stroke="#9CA9BA" stroke-width="1.2" stroke-linecap="round" stroke-linejoin="round"/>
<path d="M8.73257 9.33478C9.06543 9.33478 9.33527 9.06494 9.33527 8.73209C9.33527 8.39923 9.06543 8.12939 8.73257 8.12939C8.39972 8.12939 8.12988 8.39923 8.12988 8.73209C8.12988 9.06494 8.39972 9.33478 8.73257 9.33478Z" stroke="#9CA9BA" stroke-width="1.2" stroke-linecap="round" stroke-linejoin="round"/>
</svg>
