<svg width="18" height="18" viewBox="0 0 18 18" fill="none" xmlns="http://www.w3.org/2000/svg">
<g clip-path="url(#clip0_306_3625)">
<path d="M16.6071 10.2158L11.8193 16.6073L8.62354 14.2134" stroke="#9CA9BA" stroke-width="1.2" stroke-linecap="round" stroke-linejoin="round"/>
<path d="M6.72944 6.72939C8.1735 6.72939 9.34414 5.55875 9.34414 4.1147C9.34414 2.67064 8.1735 1.5 6.72944 1.5C5.28539 1.5 4.11475 2.67064 4.11475 4.1147C4.11475 5.55875 5.28539 6.72939 6.72944 6.72939Z" stroke="#9CA9BA" stroke-width="1.2" stroke-linecap="round" stroke-linejoin="round"/>
<path d="M4.40522 15.445H1.5V13.7018C1.50091 12.6682 1.8081 11.6581 2.38278 10.799C2.95745 9.93984 3.77383 9.27028 4.72881 8.87486C5.68379 8.47944 6.73454 8.37589 7.74833 8.57728C8.76213 8.77868 9.69351 9.27599 10.4248 10.0064" stroke="#9CA9BA" stroke-width="1.2" stroke-linecap="round" stroke-linejoin="round"/>
</g>
<defs>
<clipPath id="clip0_306_3625">
<rect width="18" height="18" fill="white"/>
</clipPath>
</defs>
</svg>
