<svg width="18" height="18" viewBox="0 0 18 18" fill="none" xmlns="http://www.w3.org/2000/svg">
<g clip-path="url(#clip0_306_3608)">
<path d="M6.72963 6.72939C8.17368 6.72939 9.34432 5.55875 9.34432 4.1147C9.34432 2.67064 8.17368 1.5 6.72963 1.5C5.28557 1.5 4.11493 2.67064 4.11493 4.1147C4.11493 5.55875 5.28557 6.72939 6.72963 6.72939Z" stroke="#9CA9BA" stroke-width="1.2" stroke-linecap="round" stroke-linejoin="round"/>
<path d="M4.98626 15.445H1.5V13.7019C1.50925 12.8162 1.74285 11.9472 2.17898 11.1762C2.6151 10.4052 3.23953 9.75733 3.99393 9.29309C4.74833 8.82884 5.60808 8.56338 6.49289 8.52149C7.3777 8.4796 8.25869 8.66266 9.05357 9.05356" stroke="#9CA9BA" stroke-width="1.2" stroke-linecap="round" stroke-linejoin="round"/>
<path d="M16.6068 10.7969L11.1334 16.2704L8.65814 16.6074L9.00677 14.1321L14.4686 8.65869L16.6068 10.7969Z" stroke="#9CA9BA" stroke-width="1.2" stroke-linecap="round" stroke-linejoin="round"/>
</g>
<defs>
<clipPath id="clip0_306_3608">
<rect width="18" height="18" fill="white"/>
</clipPath>
</defs>
</svg>
