<svg width="18" height="18" viewBox="0 0 18 18" fill="none" xmlns="http://www.w3.org/2000/svg">
<g clip-path="url(#clip0_306_3589)">
<path d="M1.5 5.25V2.57143C1.5 2.28727 1.61288 2.01475 1.81381 1.81381C2.01475 1.61288 2.28727 1.5 2.57143 1.5H5.25" stroke="#9CA9BA" stroke-width="1.2" stroke-linecap="round" stroke-linejoin="round"/>
<path d="M16.5 5.25V2.57143C16.5 2.28727 16.3871 2.01475 16.1862 1.81381C15.9853 1.61288 15.7127 1.5 15.4286 1.5H12.75" stroke="#9CA9BA" stroke-width="1.2" stroke-linecap="round" stroke-linejoin="round"/>
<path d="M1.5 12.75V15.4286C1.5 15.7127 1.61288 15.9853 1.81381 16.1862C2.01475 16.3871 2.28727 16.5 2.57143 16.5H5.25" stroke="#9CA9BA" stroke-width="1.2" stroke-linecap="round" stroke-linejoin="round"/>
<path d="M16.5 12.75V15.4286C16.5 15.7127 16.3871 15.9853 16.1862 16.1862C15.9853 16.3871 15.7127 16.5 15.4286 16.5H12.75" stroke="#9CA9BA" stroke-width="1.2" stroke-linecap="round" stroke-linejoin="round"/>
<path d="M1.5 9.1096H5.25L7.125 5.25L10.875 11.625L12.75 9.1096H16.6448" stroke="#9CA9BA" stroke-width="1.2" stroke-linecap="round" stroke-linejoin="round"/>
</g>
<defs>
<clipPath id="clip0_306_3589">
<rect width="18" height="18" fill="white"/>
</clipPath>
</defs>
</svg>
